<svg width="25" height="24" viewBox="0 0 25 24" >
<path fill-rule="evenodd" clip-rule="evenodd" d="M12.5234 24C19.1509 24 24.5234 18.6274 24.5234 12C24.5234 5.37258 19.1509 0 12.5234 0C5.89602 0 0.523438 5.37258 0.523438 12C0.523438 18.6274 5.89602 24 12.5234 24ZM14.3132 18.364C15.5727 19.6235 17.6278 19.6235 18.8873 18.364C20.1634 17.0879 20.1468 15.0494 18.8873 13.7899C18.0255 12.9281 16.9814 12.5469 15.755 12.6795C14.5286 12.8121 13.7 12.6463 13.3188 12.2652L13.0205 11.9669L13.2857 11.7017C13.584 11.4034 14.0646 11.2542 14.827 11.2874C16.6997 11.3702 17.8432 11.2542 18.8873 10.2101C20.1468 8.9506 20.1468 6.89557 18.8873 5.63604C17.6112 4.35993 15.5727 4.37651 14.3132 5.63604C13.468 6.48125 13.0868 7.52534 13.2028 8.7683C13.3023 9.99469 13.1697 10.8233 12.7885 11.2045L12.5233 11.4697L12.2582 11.2045C11.877 10.8233 11.761 10.0113 11.8438 8.7683C11.9267 7.52534 11.5787 6.48125 10.7335 5.63604C9.49051 4.39308 7.4189 4.37651 6.15937 5.63604C4.88326 6.91215 4.89984 8.9506 6.15937 10.2101C7.18689 11.2376 8.41327 11.3702 9.49051 11.3205L10.2197 11.2874C10.9821 11.2542 11.4627 11.4034 11.761 11.7017L12.0261 11.9669L11.7278 12.2652C11.3632 12.6298 10.5346 12.7623 9.29163 12.6795C8.04867 12.5966 7.00458 12.9447 6.15937 13.7899C4.89984 15.0494 4.89984 17.1044 6.15937 18.364C7.41891 19.6235 9.47393 19.6235 10.7335 18.364C11.5621 17.5353 11.9433 16.4912 11.8438 15.1986C11.761 13.9224 11.877 13.1104 12.225 12.7624L12.5233 12.464L12.8216 12.7623C13.12 13.0607 13.2691 13.5413 13.236 14.3036C13.1531 16.2758 13.2525 17.3033 14.3132 18.364Z"/>
</svg>
