<svg width="60" height="60" viewBox="0 0 60 60" fill="none" xmlns="http://www.w3.org/2000/svg">
<circle cx="30" cy="30" r="30" fill="#00FFC8"/>
<g clip-path="url(#clip0_155_486)">
<path fill-rule="evenodd" clip-rule="evenodd" d="M27.3466 15.7483C27.9406 16.3258 27.9539 17.2754 27.3765 17.8694L24.1064 21.2329L27.4235 24.55C28.0092 25.1358 28.0092 26.0855 27.4235 26.6713C26.8377 27.2571 25.8879 27.2571 25.3021 26.6713L22.015 23.3841L18.7744 26.7173C18.1969 27.3112 17.2473 27.3246 16.6533 26.7471C16.0593 26.1697 16.0459 25.22 16.6234 24.626L19.8934 21.2626L16.5763 17.9455C15.9905 17.3597 15.9905 16.4099 16.5763 15.8241C17.1621 15.2384 18.1118 15.2384 18.6976 15.8241L21.9849 19.1114L25.2255 15.7782C25.803 15.1842 26.7526 15.1708 27.3466 15.7483Z" fill="black"/>
</g>
<g clip-path="url(#clip1_155_486)">
<path fill-rule="evenodd" clip-rule="evenodd" d="M43.3466 15.7483C43.9406 16.3258 43.9539 17.2754 43.3765 17.8694L40.1064 21.2329L43.4235 24.55C44.0092 25.1358 44.0092 26.0855 43.4235 26.6713C42.8377 27.2571 41.8879 27.2571 41.3021 26.6713L38.015 23.3841L34.7744 26.7173C34.1969 27.3112 33.2473 27.3246 32.6533 26.7471C32.0593 26.1697 32.0459 25.22 32.6234 24.626L35.8934 21.2626L32.5763 17.9455C31.9905 17.3597 31.9905 16.4099 32.5763 15.8241C33.1621 15.2384 34.1118 15.2384 34.6976 15.8241L37.9849 19.1114L41.2255 15.7782C41.803 15.1842 42.7526 15.1708 43.3466 15.7483Z" fill="black"/>
</g>
<path d="M47.2943 32C47.2943 41.4784 39.5514 49.1622 30 49.1622C20.4485 49.1622 12.7056 41.4784 12.7056 32" stroke="black" stroke-width="3" stroke-linecap="round"/>
<defs>
<clipPath id="clip0_155_486">
<rect width="12" height="12"  transform="translate(16 15.2477)"/>
</clipPath>
<clipPath id="clip1_155_486">
<rect width="12" height="12" transform="translate(32 15.2477)"/>
</clipPath>
</defs>
</svg>
